<svg width="74" height="66" viewBox="0 0 74 66" fill="none" xmlns="http://www.w3.org/2000/svg">
<path d="M64 32C64 49.6731 49.6731 64 32 64C14.3269 64 0 49.6731 0 32C0 14.3269 14.3269 0 32 0C49.6731 0 64 14.3269 64 32Z" fill="#E6AECF"/>
<path d="M73.5 22C73.5 27.2467 69.2467 31.5 64 31.5C58.7533 31.5 54.5 27.2467 54.5 22C54.5 16.7533 58.7533 12.5 64 12.5C69.2467 12.5 73.5 16.7533 73.5 22Z" stroke="#57632D"/>
<path d="M63.5 61C63.5 63.4853 61.4853 65.5 59 65.5C56.5147 65.5 54.5 63.4853 54.5 61C54.5 58.5147 56.5147 56.5 59 56.5C61.4853 56.5 63.5 58.5147 63.5 61Z" stroke="#57632D"/>
<path d="M66.5 53.5C66.5 54.6046 65.6046 55.5 64.5 55.5C63.3954 55.5 62.5 54.6046 62.5 53.5C62.5 52.3954 63.3954 51.5 64.5 51.5C65.6046 51.5 66.5 52.3954 66.5 53.5Z" stroke="#57632D"/>
</svg>
