<svg width="1441" height="234" viewBox="0 0 1441 234" fill="none" xmlns="http://www.w3.org/2000/svg">
<path fill-rule="evenodd" clip-rule="evenodd" d="M1441 159.963L1410.98 170.627C1380.96 181.291 1320.92 202.619 1260.88 218.615C1200.83 234.612 1140.79 245.276 1080.75 213.283C1020.71 181.291 960.667 106.642 900.625 95.9775C840.583 85.3134 780.542 138.634 720.5 165.295C660.458 191.955 600.417 191.955 540.375 159.963C480.333 127.97 420.292 63.985 360.25 47.9888C300.208 31.9925 240.167 63.985 180.125 74.6492C120.083 85.3134 60.0417 74.6492 30.0208 69.3171L1.52588e-05 63.985V3.51346e-06H30.0208C60.0417 3.51346e-06 120.083 3.51346e-06 180.125 3.51346e-06C240.167 3.51346e-06 300.208 3.51346e-06 360.25 3.51346e-06C420.292 3.51346e-06 480.333 3.51346e-06 540.375 3.51346e-06C600.417 3.51346e-06 660.458 3.51346e-06 720.5 3.51346e-06C780.542 3.51346e-06 840.583 3.51346e-06 900.625 3.51346e-06C960.667 3.51346e-06 1020.71 3.51346e-06 1080.75 3.51346e-06C1140.79 3.51346e-06 1200.83 3.51346e-06 1260.88 3.51346e-06C1320.92 3.51346e-06 1380.96 3.51346e-06 1410.98 3.51346e-06H1441V159.963Z" fill="#F7ECD0"/>
</svg>
