<svg width="79" height="106" viewBox="0 0 79 106" fill="none" xmlns="http://www.w3.org/2000/svg">
<path d="M48.6035 78.8989L48.6101 78.9011C48.6913 78.9277 48.7355 78.9679 48.7536 78.9911C48.7573 78.9959 48.7598 78.9998 48.7616 79.0028C48.7598 79.0058 48.7573 79.0097 48.7537 79.0144C48.7357 79.0375 48.6916 79.0777 48.6105 79.1044L48.6053 79.1062L32.5276 84.4683L31.8125 84.7068L31.5772 85.4229L25.5697 103.698L25.5691 103.7C25.569 103.7 25.5667 103.707 25.5576 103.719C25.5484 103.731 25.5321 103.748 25.5055 103.766C25.4499 103.803 25.3642 103.834 25.2615 103.834C25.1587 103.834 25.0729 103.803 25.0173 103.766C24.9906 103.748 24.9742 103.731 24.965 103.719C24.9558 103.707 24.9535 103.7 24.9533 103.7L24.9533 103.7L18.9458 85.4245L18.7105 84.7085L17.9955 84.47L1.9196 79.1078L1.91883 79.1075C1.83766 79.0805 1.79333 79.0401 1.77517 79.0166C1.77087 79.011 1.76809 79.0066 1.76632 79.0033C1.76809 79.0001 1.77087 78.9956 1.77517 78.9901C1.79333 78.9666 1.83766 78.9262 1.91883 78.8991L1.91949 78.8989L18.0044 73.5351L18.7116 73.2993L18.9507 72.5931L24.9536 54.8613C24.9536 54.8613 24.9536 54.8613 24.9537 54.8612C24.9545 54.859 24.9664 54.8293 25.0187 54.7944C25.0744 54.7573 25.1597 54.7271 25.2615 54.7271C25.3633 54.7271 25.4486 54.7573 25.5043 54.7944C25.5566 54.8293 25.5685 54.859 25.5693 54.8612C25.5693 54.8613 25.5694 54.8613 25.5694 54.8613L31.5742 72.5933L31.8132 73.2993L32.5203 73.5351L48.6035 78.8989Z" fill="#5F7158" stroke="#5F7158" stroke-width="3"/>
<path d="M77.0698 26.5042L77.0764 26.5063C77.1576 26.533 77.2019 26.5732 77.2199 26.5964C77.2236 26.6011 77.2262 26.6051 77.2279 26.6081C77.2262 26.611 77.2236 26.6149 77.22 26.6196C77.2021 26.6427 77.1579 26.683 77.0768 26.7096L77.0716 26.7114L60.9939 32.0736L60.2789 32.3121L60.0435 33.0281L54.036 51.3031L54.0355 51.3049C54.0353 51.3054 54.033 51.3123 54.0239 51.3241C54.0147 51.336 53.9984 51.353 53.9718 51.3709C53.9162 51.4084 53.8305 51.4392 53.7278 51.4392C53.6251 51.4393 53.5393 51.4086 53.4836 51.3711C53.4569 51.3532 53.4405 51.3361 53.4313 51.3242C53.4222 51.3124 53.4198 51.3055 53.4197 51.3049L53.4196 51.3048L47.4122 33.0297L47.1768 32.3137L46.4618 32.0752L30.3859 26.713L30.3852 26.7128C30.304 26.6858 30.2597 26.6453 30.2415 26.6218C30.2372 26.6163 30.2344 26.6118 30.2327 26.6086C30.2344 26.6054 30.2372 26.6009 30.2415 26.5953C30.2597 26.5718 30.304 26.5314 30.3852 26.5044L30.3858 26.5042L46.4707 21.1404L47.178 20.9045L47.417 20.1984L53.42 2.46657C53.42 2.46656 53.42 2.46652 53.42 2.46644C53.4208 2.46427 53.4327 2.43451 53.485 2.39968C53.5408 2.36255 53.626 2.33231 53.7278 2.33231C53.8296 2.33231 53.9149 2.36255 53.9706 2.39968C54.023 2.43452 54.0348 2.46429 54.0357 2.46645C54.0357 2.46652 54.0357 2.46656 54.0357 2.46657L60.0405 20.1985L60.2796 20.9045L60.9867 21.1403L77.0698 26.5042Z" fill="#99AB5F" stroke="#5F7158" stroke-width="3"/>
</svg>
