<svg width="50" height="50" viewBox="0 0 50 50" fill="none" xmlns="http://www.w3.org/2000/svg">
<path d="M48.8139 23.2684L32.7308 18.1215L26.7251 1.10412C26.6117 0.784482 26.3826 0.504734 26.0716 0.305993C25.7606 0.107252 25.3841 0 24.9973 0C24.6106 0 24.2341 0.107252 23.9231 0.305993C23.6121 0.504734 23.383 0.784482 23.2696 1.10412L17.2657 18.1215L1.18082 23.2684C0.834348 23.3791 0.535424 23.5789 0.324303 23.8409C0.113181 24.103 0 24.4147 0 24.734C0 25.0534 0.113181 25.365 0.324303 25.6271C0.535424 25.8891 0.834348 26.0889 1.18082 26.1996L17.2567 31.345L23.2641 48.8811C23.3749 49.2044 23.6035 49.488 23.916 49.6896C24.2285 49.8913 24.6081 50.0002 24.998 50C25.388 49.9998 25.7674 49.8906 26.0796 49.6887C26.3919 49.4867 26.6202 49.2029 26.7305 48.8795L32.738 31.3434L48.8157 26.1981C49.1631 26.0883 49.463 25.8888 49.6748 25.6267C49.8867 25.3646 50.0002 25.0525 50 24.7327C49.9998 24.4129 49.8859 24.1009 49.6737 23.839C49.4616 23.5771 49.1614 23.3779 48.8139 23.2684Z" fill="#CCDB9B"/>
</svg>
