<svg width="104" height="156" viewBox="0 0 104 156" fill="none" xmlns="http://www.w3.org/2000/svg">
<circle cx="52" cy="79" r="52" fill="#F6B868"/>
<path d="M96 25C96 38.2548 85.2548 49 72 49C58.7452 49 48 38.2548 48 25C48 11.7452 58.7452 1 72 1C85.2548 1 96 11.7452 96 25Z" stroke="#57632D" stroke-width="2"/>
<path d="M89 55C89 57.2091 87.2091 59 85 59C82.7909 59 81 57.2091 81 55C81 52.7909 82.7909 51 85 51C87.2091 51 89 52.7909 89 55Z" stroke="#74833F" stroke-width="2"/>
<path d="M83 146C83 150.971 78.9706 155 74 155C69.0294 155 65 150.971 65 146C65 141.029 69.0294 137 74 137C78.9706 137 83 141.029 83 146Z" stroke="#74833F" stroke-width="2"/>
</svg>
