<svg width="118" height="2148" viewBox="0 0 118 2148" fill="none" xmlns="http://www.w3.org/2000/svg">
<path d="M-37.9208 1.92797C171.953 285.207 167.194 399.397 -52.1952 344.5C-271.585 289.603 -294.599 362.649 -84.7256 645.928C125.148 929.207 120.39 1043.4 -99 988.5C-318.39 933.603 -270.257 1077.93 -60.3836 1361.2C149.49 1644.48 144.732 1758.67 -74.658 1703.78C-294.048 1648.88 -298.806 1763.07 -88.9325 2046.35C120.941 2329.63 116.183 2443.82 -103.207 2388.92C-322.597 2334.02 -327.355 2448.21 -117.481 2731.49C92.392 3014.77 87.6339 3128.96 -131.756 3074.06C-351.146 3019.17 -355.904 3133.36 -146.03 3416.64" stroke="white" stroke-width="4"/>
</svg>
