<svg width="1440" height="897" viewBox="0 0 1440 897" fill="none" xmlns="http://www.w3.org/2000/svg">
<path d="M-103.271 894.314C46.4437 709.058 126.452 679.364 136.754 805.232C147.057 931.099 227.065 901.405 376.78 716.15C526.494 530.894 606.502 501.2 616.805 627.067C627.107 752.935 707.116 723.241 856.83 537.985C1006.54 352.73 1086.55 323.036 1096.86 448.903C1107.16 574.77 1187.17 545.076 1336.88 359.821C1486.59 174.566 1566.6 144.871 1576.91 270.739C1587.21 396.606 1667.22 366.912 1816.93 181.657C1966.64 -3.59874 2046.65 -33.2928 2056.96 92.5745C2067.26 218.442 2147.27 188.748 2296.98 3.49233" stroke="#F59A23" stroke-width="8"/>
</svg>
