<svg width="50" height="53" viewBox="0 0 50 53" fill="none" xmlns="http://www.w3.org/2000/svg">
<path d="M48.8139 24.2489L32.7308 18.8851L26.7251 1.15065C26.6117 0.817539 26.3826 0.526003 26.0716 0.318887C25.7606 0.111772 25.3841 0 24.9973 0C24.6106 0 24.2341 0.111772 23.9231 0.318887C23.6121 0.526003 23.383 0.817539 23.2696 1.15065L17.2657 18.8851L1.18082 24.2489C0.834348 24.3642 0.535424 24.5725 0.324303 24.8456C0.113181 25.1187 0 25.4435 0 25.7763C0 26.1091 0.113181 26.4339 0.324303 26.707C0.535424 26.9801 0.834348 27.1883 1.18082 27.3037L17.2567 32.6658L23.2641 50.9409C23.3749 51.2778 23.6035 51.5733 23.916 51.7835C24.2285 51.9937 24.6081 52.1071 24.998 52.1069C25.388 52.1068 25.7674 51.9929 26.0796 51.7825C26.3919 51.572 26.6202 51.2762 26.7305 50.9392L32.738 32.6642L48.8157 27.302C49.1631 27.1876 49.463 26.9797 49.6748 26.7066C49.8867 26.4334 50.0002 26.1081 50 25.7749C49.9998 25.4416 49.8859 25.1165 49.6737 24.8435C49.4616 24.5706 49.1614 24.363 48.8139 24.2489Z" fill="#F6B868"/>
</svg>
