<svg width="1417" height="933" viewBox="0 0 1417 933" fill="none" xmlns="http://www.w3.org/2000/svg">
<path d="M1687.16 0.53031C1656.58 263.637 1599.96 341.26 1517.3 233.399C1434.65 125.537 1375.82 125.336 1345.24 388.444C1314.65 651.551 1436.35 525.272 1353.7 417.411C1271.04 309.549 1052.15 684.761 1021.56 947.869C990.98 1210.98 934.36 1288.6 851.703 1180.74C769.047 1072.88 712.426 1150.5 681.842 1413.61C651.257 1676.71 594.637 1754.34 511.98 1646.47C429.324 1538.61 372.704 1616.24 342.119 1879.34C311.535 2142.45 254.914 2220.07 172.258 2112.21C89.6013 2004.35 32.9807 2081.97 2.39627 2345.08" stroke="#5F7158" stroke-width="4"/>
</svg>
