<svg width="237" height="2221" viewBox="0 0 237 2221" fill="none" xmlns="http://www.w3.org/2000/svg">
<path d="M263.85 1.32841C473.723 284.607 468.965 398.798 249.575 343.9C30.1856 289.003 7.17158 380.05 217.045 663.329C426.918 946.607 422.16 1060.8 202.771 1005.9C-16.6191 951.003 31.5135 1095.33 241.387 1378.6C451.26 1661.88 446.502 1776.07 227.113 1721.18C7.7228 1666.28 2.96465 1780.47 212.838 2063.75C422.711 2347.03 417.953 2461.22 198.564 2406.32C-20.8261 2351.42 -25.5842 2465.61 184.289 2748.89C394.163 3032.17 389.404 3146.36 170.015 3091.46C-49.3749 3036.57 -54.1331 3150.76 155.74 3434.04" stroke="white" stroke-width="3"/>
</svg>
