<svg width="1440" height="1030" viewBox="0 0 1440 1030" fill="none" xmlns="http://www.w3.org/2000/svg">
<path d="M1767.66 0.162036C1743.73 322.221 1676.38 414.557 1565.61 277.168C1454.83 139.78 1380.31 136.221 1356.38 458.28C1332.45 780.339 1479.5 631.792 1368.72 494.403C1257.95 357.015 1001.8 806.43 977.87 1128.49C953.941 1450.55 886.588 1542.88 775.813 1405.5C665.038 1268.11 597.686 1360.44 573.757 1682.5C549.827 2004.56 482.475 2096.9 371.7 1959.51C260.925 1822.12 193.573 1914.46 169.643 2236.51C145.714 2558.57 78.3613 2650.91 -32.4137 2513.52C-143.189 2376.13 -210.541 2468.47 -234.471 2790.53" stroke="#5F7158" stroke-width="4"/>
</svg>
