<svg width="1440" height="967" viewBox="0 0 1440 967" fill="none" xmlns="http://www.w3.org/2000/svg">
<path d="M-614.925 20.175C-390.265 -17.9316 -316.142 12.9545 -392.558 112.833C-468.974 212.712 -394.851 243.598 -170.191 205.492C54.4692 167.385 128.592 198.271 52.176 298.15C-24.2396 398.029 49.8828 428.915 274.543 390.808C499.203 352.702 573.326 383.588 496.91 483.467C420.494 583.346 494.617 614.232 719.277 576.125C943.937 538.019 1018.06 568.905 941.644 668.784C865.229 768.662 939.351 799.548 1164.01 761.442C1388.67 723.335 1462.79 754.221 1386.38 854.1C1309.96 953.979 1384.08 984.865 1608.75 946.759" stroke="white" stroke-width="8"/>
</svg>
