<svg width="1440" height="961" viewBox="0 0 1440 961" fill="none" xmlns="http://www.w3.org/2000/svg">
<path d="M-585.925 17.175C-361.265 -20.9316 -287.142 9.95449 -363.558 109.833C-439.974 209.712 -365.851 240.598 -141.191 202.492C83.4692 164.385 157.592 195.271 81.176 295.15C4.76044 395.029 78.8828 425.915 303.543 387.808C528.203 349.702 602.326 380.588 525.91 480.467C449.494 580.346 523.617 611.232 748.277 573.125C972.937 535.019 1047.06 565.905 970.644 665.784C894.229 765.662 968.351 796.548 1193.01 758.442C1417.67 720.335 1491.79 751.221 1415.38 851.1C1338.96 950.979 1413.08 981.865 1637.75 943.759" stroke="white" stroke-width="2"/>
</svg>
