<svg width="1440" height="219" viewBox="0 0 1440 219" fill="none" xmlns="http://www.w3.org/2000/svg">
<path fill-rule="evenodd" clip-rule="evenodd" d="M1440 202.603L1380 208.079C1320 214.337 1200 225.289 1080 214.337C960 202.603 840 168.966 720 135.33C600 101.693 480 67.2737 360 73.5317C240 79.0075 120 123.596 60 146.281L0 168.966V7.25889e-06H60C120 7.25889e-06 240 7.25889e-06 360 7.25889e-06C480 7.25889e-06 600 7.25889e-06 720 7.25889e-06C840 7.25889e-06 960 7.25889e-06 1080 7.25889e-06C1200 7.25889e-06 1320 7.25889e-06 1380 7.25889e-06H1440V202.603Z" fill="#FEF7ED"/>
</svg>
