<svg width="67" height="141" viewBox="0 0 67 141" fill="none" xmlns="http://www.w3.org/2000/svg">
<path d="M63.0292 110.24L52.102 106.548L47.852 92.3143C47.5856 91.3969 46.9947 90.5857 46.1714 90.0069C45.348 89.428 44.3383 89.1139 43.2992 89.1134C42.2602 89.1129 41.2501 89.4261 40.4261 90.0041C39.6021 90.5822 39.0103 91.3929 38.7428 92.3099L34.4928 106.544L23.5703 110.236C22.6651 110.542 21.884 111.093 21.3324 111.817C20.7807 112.54 20.485 113.4 20.485 114.282C20.485 115.163 20.7807 116.024 21.3324 116.747C21.884 117.471 22.6651 118.022 23.5703 118.328L34.4362 122.007L38.7192 137.63C38.9757 138.562 39.5659 139.39 40.3961 139.981C41.2263 140.572 42.249 140.893 43.3016 140.892C44.3543 140.892 45.3766 140.57 46.2061 139.978C47.0357 139.386 47.625 138.558 47.8803 137.625L52.1634 122.003L63.0292 118.323C63.9375 118.022 64.7222 117.472 65.2767 116.749C65.8312 116.026 66.1287 115.165 66.1287 114.282C66.1287 113.399 65.8312 112.538 65.2767 111.815C64.7222 111.092 63.9375 110.542 63.0292 110.24ZM42.5442 16.8014L31.3809 13.0272L27.2442 2.82627C26.9117 1.99749 26.3086 1.28198 25.5164 0.776495C24.7242 0.271009 23.7811 -6.36071e-05 22.8148 -6.36071e-05C21.8484 -6.36071e-05 20.9054 0.271009 20.1132 0.776495C19.321 1.28198 18.7179 1.99749 18.3853 2.82627L14.2534 13.0272L3.08535 16.8014C2.18005 17.1069 1.399 17.6585 0.847371 18.3819C0.295739 19.1053 1.23978e-05 19.9657 1.23978e-05 20.8472C1.23978e-05 21.7288 0.295739 22.5892 0.847371 23.3125C1.399 24.0359 2.18005 24.5875 3.08535 24.8931L14.2534 28.6672L18.3853 38.8682C18.7199 39.6951 19.3238 40.4085 20.1157 40.9124C20.9077 41.4162 21.8497 41.6863 22.8148 41.6863C23.7799 41.6863 24.7219 41.4162 25.5138 40.9124C26.3058 40.4085 26.9097 39.6951 27.2442 38.8682L31.3762 28.6672L42.5442 24.8931C43.4495 24.5875 44.2306 24.0359 44.7822 23.3125C45.3338 22.5892 45.6296 21.7288 45.6296 20.8472C45.6296 19.9657 45.3338 19.1053 44.7822 18.3819C44.2306 17.6585 43.4495 17.1069 42.5442 16.8014Z" fill="#F3D37F"/>
</svg>
